<svg width="19" height="19" viewBox="0 0 19 19" fill="none" xmlns="http://www.w3.org/2000/svg">
<path d="M5.5672 6.43417C5.5672 5.39139 5.98154 4.39131 6.71908 3.65395C7.45662 2.91658 8.45694 2.50232 9.5 2.50232C10.5431 2.50232 11.5434 2.91658 12.2809 3.65395C13.0185 4.39131 13.4328 5.39139 13.4328 6.43417C13.4328 7.47695 13.0185 8.47703 12.2809 9.2144C11.5434 9.95177 10.5431 10.366 9.5 10.366C8.45694 10.366 7.45662 9.95177 6.71908 9.2144C5.98154 8.47703 5.5672 7.47695 5.5672 6.43417ZM3.4399 8.09145C3.75785 9.25341 4.40278 10.2976 5.29541 11.1013C2.13504 12.3048 0.153214 14.8492 0.153214 17.6681C0.153214 17.9796 0.276988 18.2784 0.497297 18.4986C0.717606 18.7189 1.0164 18.8426 1.32795 18.8426C1.63949 18.8426 1.93829 18.7189 2.15859 18.4986C2.3789 18.2784 2.50268 17.9796 2.50268 17.6681C2.50268 15.4606 4.81103 12.715 9.5 12.715C14.189 12.715 16.4973 15.4606 16.4973 17.6681C16.4973 17.9796 16.6211 18.2784 16.8414 18.4986C17.0617 18.7189 17.3605 18.8426 17.6721 18.8426C17.9836 18.8426 18.2824 18.7189 18.5027 18.4986C18.723 18.2784 18.8468 17.9796 18.8468 17.6681C18.8468 14.8491 16.8669 12.3048 13.7036 11.1012C14.5962 10.2975 15.2411 9.25338 15.5591 8.09145C15.9003 6.84457 15.8483 5.52279 15.4104 4.30651C14.9724 3.09023 14.1697 2.03869 13.1118 1.29538C12.054 0.552079 10.7925 0.153214 9.49949 0.153214C8.20651 0.153214 6.94501 0.552079 5.88715 1.29538C4.8293 2.03869 4.0266 3.09023 3.58862 4.30651C3.15064 5.52279 3.0987 6.84457 3.4399 8.09145Z" fill="#262626" stroke="#262626" stroke-width="0.3"/>
</svg>
