<svg width="19" height="19" viewBox="0 0 19 19" fill="none" xmlns="http://www.w3.org/2000/svg">
<path d="M18.7072 4.28077C18.8947 4.4683 19 4.72261 19 4.98778C19 5.25294 18.8947 5.50725 18.7072 5.69478L5.70707 18.695C5.51958 18.8825 5.26526 18.9879 5.00006 18.988H1.00001C0.734793 18.988 0.480436 18.8826 0.292897 18.6951C0.105358 18.5075 0 18.2532 0 17.9879V13.9879C5.66381e-05 13.7227 0.105452 13.4684 0.293004 13.2809L13.2932 0.280715C13.4818 0.0985551 13.7344 -0.00224065 13.9966 3.78031e-05C14.2588 0.00231625 14.5096 0.107487 14.695 0.292897C14.8804 0.478308 14.9856 0.729123 14.9879 0.991323C14.9901 1.25352 14.8893 1.50613 14.7072 1.69473L2.00003 14.4019V16.9879H4.58606L17.2932 4.28077C17.4808 4.09329 17.7351 3.98798 18.0002 3.98798C18.2654 3.98798 18.5197 4.09329 18.7072 4.28077Z" fill="#525252"/>
</svg>
