<svg width="19" height="19" viewBox="0 0 19 19" fill="none" xmlns="http://www.w3.org/2000/svg">
<path d="M16.7275 18.4383L16.7275 18.4382L11.6956 13.4075C10.6442 14.155 9.41196 14.6102 8.12486 14.7249C6.77949 14.8448 5.42728 14.588 4.21961 13.9832C3.01195 13.3784 1.9965 12.4494 1.28696 11.3003C0.577421 10.1513 0.20179 8.82742 0.20212 7.47701L16.7275 18.4383ZM16.7275 18.4383C16.9551 18.6656 17.2637 18.7933 17.5853 18.7932C17.907 18.793 18.2155 18.6652 18.4429 18.4377C18.6703 18.2102 18.798 17.9016 18.7979 17.58C18.7978 17.2584 18.6699 16.95 18.4423 16.7226C18.4423 16.7226 18.4423 16.7226 18.4423 16.7226L13.4094 11.6919C14.0424 10.8016 14.4672 9.77962 14.6513 8.70145C14.8453 7.56561 14.7667 6.39994 14.4218 5.30044C14.077 4.20094 13.4759 3.19906 12.6679 2.3773C11.86 1.55555 10.8684 0.937425 9.77473 0.573828C8.68108 0.210231 7.51669 0.11156 6.37743 0.285941C5.23818 0.460322 4.15665 0.902766 3.2219 1.57684C2.28715 2.25092 1.52593 3.13735 1.00091 4.16314C0.47591 5.18891 0.202129 6.32469 0.20212 7.47696L16.7275 18.4383ZM4.04844 4.04768C4.95818 3.13815 6.19205 2.62717 7.47864 2.62717C8.76522 2.62717 9.9991 3.13815 10.9088 4.04768C11.8186 4.9572 12.3296 6.19077 12.3296 7.47701C12.3296 8.76325 11.8186 9.99682 10.9088 10.9063C9.9991 11.8159 8.76522 12.3268 7.47864 12.3268C6.19205 12.3268 4.95818 11.8159 4.04844 10.9063C3.1387 9.99682 2.62763 8.76325 2.62763 7.47701C2.62763 6.19077 3.1387 4.9572 4.04844 4.04768Z" fill="#262626" stroke="#262626" stroke-width="0.4"/>
</svg>
