<svg width="20" height="25" viewBox="0 0 20 25" fill="none" xmlns="http://www.w3.org/2000/svg">
<path d="M19.6426 20.2718L19.6426 20.2725C19.7304 21.4247 19.3342 22.5698 18.5548 23.4169L18.3708 23.2476L18.5548 23.4169C17.7752 24.264 16.6704 24.75 15.5226 24.75L4.38212 24.75C3.2342 24.75 2.12944 24.264 1.34997 23.4169C0.570566 22.5699 0.174316 21.4248 0.261988 20.2743L0.262038 20.2736L1.32709 6.76522C1.32709 6.7651 1.3271 6.76499 1.32711 6.76487C1.40324 5.76758 2.24178 4.98433 3.24051 4.98433L5.096 4.98433C5.17753 2.36102 7.32299 0.25 9.95236 0.25C12.5817 0.25 14.7272 2.36102 14.8087 4.98433L16.6643 4.98433C17.6631 4.98433 18.5013 5.76767 18.5778 6.76638L19.6426 20.2718ZM19.6426 20.2718L18.5778 6.76702L19.6426 20.2718ZM5.0936 6.89011L3.24051 6.89011C3.23626 6.89011 3.2311 6.89165 3.22602 6.89638C3.22092 6.90113 3.2184 6.90682 3.21797 6.91246L3.21792 6.91316L2.15296 20.4217C2.15296 20.4218 2.15295 20.4218 2.15294 20.4219C2.10482 21.0537 2.31382 21.6572 2.74252 22.1231L5.0936 6.89011ZM5.0936 6.89011L5.0936 8.37144C5.0936 8.89613 5.51664 9.32433 6.04188 9.32433C6.56713 9.32433 6.99017 8.89613 6.99017 8.37144L6.99017 6.89011L12.9146 6.89011L12.9146 8.37144C12.9146 8.89613 13.3376 9.32433 13.8628 9.32433C14.3881 9.32433 14.8111 8.89613 14.8111 8.37144L14.8111 6.89011L16.6643 6.89011C16.6684 6.89011 16.6733 6.89156 16.6783 6.89622C16.6832 6.90085 16.6864 6.90704 16.6869 6.91442L16.687 6.91504L17.7517 20.4198C17.7517 20.42 17.7518 20.4202 17.7518 20.4204M5.0936 6.89011L17.7518 20.4204M17.7518 20.4204C17.7999 21.054 17.5908 21.6573 17.1622 22.1231L17.7518 20.4204ZM15.5226 22.8442C16.1525 22.8442 16.7335 22.589 17.1622 22.1232L15.5226 22.8442ZM15.5226 22.8442L4.38216 22.8442M15.5226 22.8442L4.38216 22.8442M4.38216 22.8442C3.75218 22.8442 3.17123 22.5889 2.74254 22.1231L4.38216 22.8442ZM6.99411 4.98433C7.07442 3.40978 8.37229 2.15578 9.95236 2.15578C11.5324 2.15578 12.8303 3.40982 12.9106 4.98433L6.99411 4.98433Z" fill="#262626" stroke="#262626" stroke-width="0.5"/>
</svg>
