<svg width="17" height="20" viewBox="0 0 17 20" fill="none" xmlns="http://www.w3.org/2000/svg">
<path d="M16.7396 16.1443L16.7396 16.1436L15.8384 5.45496C15.7707 4.62424 15.0319 3.99714 14.1807 3.99714H12.6467C12.5495 1.90245 10.7133 0.25 8.50005 0.25C6.28677 0.25 4.45062 1.90245 4.35345 3.99714H2.81944C1.96854 3.99714 1.22958 4.62383 1.16184 5.45317C1.16183 5.45329 1.16182 5.45342 1.16181 5.45355L0.260418 16.145L0.260361 16.1457C0.184505 17.0766 0.527791 17.9997 1.19688 18.6797C1.86534 19.359 2.80892 19.7456 3.78565 19.7456H13.2144C14.1911 19.7456 15.1347 19.3591 15.8032 18.6797L15.625 18.5044L15.8032 18.6797C16.4724 17.9996 16.8155 17.0766 16.7396 16.1443ZM12.6507 5.60979H14.164L15.0629 16.2714C15.0629 16.2715 15.0629 16.2716 15.0629 16.2716C15.102 16.753 14.933 17.2138 14.5796 17.573C14.2255 17.9328 13.7424 18.1329 13.2144 18.1329H3.78569C3.25767 18.1329 2.77454 17.9328 2.42047 17.573C2.06708 17.2138 1.89813 16.7529 1.93716 16.2733C1.93717 16.2731 1.93718 16.273 1.93719 16.2729L2.83611 5.60979H4.3494V6.7301C4.3494 7.18943 4.7404 7.53643 5.1904 7.53643C5.64039 7.53643 6.03139 7.18943 6.03139 6.7301V5.60979H10.9687V6.7301C10.9687 7.18943 11.3597 7.53643 11.8097 7.53643C12.2597 7.53643 12.6507 7.18943 12.6507 6.7301V5.60979ZM6.03844 3.99714C6.13397 2.81714 7.18878 1.86265 8.50005 1.86265C9.81132 1.86265 10.8661 2.81717 10.9617 3.99714H6.03844ZM14.1617 5.58218L14.1617 5.58248L14.1617 5.58218Z" fill="#262626" stroke="#262626" stroke-width="0.5"/>
</svg>
