<svg width="17" height="15" viewBox="0 0 17 15" fill="none" xmlns="http://www.w3.org/2000/svg">
<path d="M7.74917 2.66618L8.49845 3.4505L9.24773 2.66618C9.97926 1.90046 11.0997 1.03626 12.2624 1.03626C13.4101 1.03626 14.3223 1.43212 14.9452 2.05387C15.5679 2.6755 15.9637 3.58523 15.9637 4.72909C15.9637 5.9614 15.4864 7.00238 14.6888 7.99659C13.8712 9.01561 12.7709 9.92227 11.5825 10.896L11.5571 10.9167C10.5407 11.7491 9.41355 12.6723 8.49896 13.7042C7.59337 12.6812 6.47687 11.7655 5.46954 10.9393L5.4172 10.8963L5.41678 10.896C4.2281 9.92198 3.12792 9.01512 2.31065 7.99614C1.51326 7.00196 1.03626 5.96113 1.03626 4.72909C1.03626 3.58523 1.43211 2.67553 2.05488 2.05392C2.67777 1.43217 3.59022 1.03626 4.73836 1.03626C5.89967 1.03626 7.01682 1.89961 7.74917 2.66618Z" stroke="#262626" stroke-width="2"/>
</svg>
