<svg width="4" height="18" viewBox="0 0 4 18" fill="none" xmlns="http://www.w3.org/2000/svg">
<path fill-rule="evenodd" clip-rule="evenodd" d="M2 7C3.10457 7 4 7.89543 4 9C4 10.1046 3.10457 11 2 11C0.89543 11 -1.35705e-07 10.1046 -8.74228e-08 9C-3.91405e-08 7.89543 0.895431 7 2 7Z" fill="#262626"/>
<path fill-rule="evenodd" clip-rule="evenodd" d="M2 14C3.10457 14 4 14.8954 4 16C4 17.1046 3.10457 18 2 18C0.89543 18 -1.35705e-07 17.1046 -8.74228e-08 16C-3.91405e-08 14.8954 0.895431 14 2 14Z" fill="#262626"/>
<path fill-rule="evenodd" clip-rule="evenodd" d="M2 -8.74228e-08C3.10457 -3.91405e-08 4 0.89543 4 2C4 3.10457 3.10457 4 2 4C0.89543 4 -1.35705e-07 3.10457 -8.74228e-08 2C-3.91405e-08 0.89543 0.895431 -1.35705e-07 2 -8.74228e-08Z" fill="#262626"/>
</svg>
