<svg width="21" height="19" viewBox="0 0 21 19" fill="none" xmlns="http://www.w3.org/2000/svg">
<path d="M3.93698 10.3651L3.93699 10.3651C5.01691 11.6679 6.63254 13.0463 8.55046 14.6804L8.55224 14.6819L8.55576 14.6849L8.55574 14.6849C9.1459 15.1877 9.80747 15.7514 10.4989 16.3526C11.1939 15.7502 11.8566 15.1855 12.4483 14.6816C14.3669 13.0468 15.9829 11.6683 17.0632 10.3651C18.1672 9.03307 18.6259 7.89294 18.6259 6.63984C18.6259 5.42756 18.2185 4.33796 17.5008 3.55963C16.7962 2.79545 15.8286 2.37401 14.7685 2.37401C14.0027 2.37401 13.3017 2.61538 12.6752 3.09972L3.93698 10.3651ZM3.93698 10.3651C2.83278 9.03306 2.37412 7.89294 2.37412 6.63984C2.37412 5.42756 2.78147 4.33796 3.49918 3.55963M3.93698 10.3651L3.49918 3.55963M11.1144 4.28525L11.4696 4.49732C11.2646 4.84075 10.9001 5.04792 10.5 5.04792C10.0999 5.04792 9.73543 4.84075 9.53038 4.49732L9.53032 4.49722C9.29132 4.09664 8.8901 3.53681 8.32489 3.09977L11.1144 4.28525ZM11.1144 4.28525L11.4696 4.49731C11.7088 4.09665 12.1101 3.53681 12.6751 3.09977L11.1144 4.28525ZM3.49918 3.55963C4.20403 2.79543 5.17145 2.37401 6.23162 2.37401M3.49918 3.55963L6.23162 2.37401M6.23162 2.37401C6.99733 2.37401 7.69829 2.61539 8.32486 3.09975L6.23162 2.37401ZM7.28103 16.1742L7.28102 16.1742L7.28416 16.1769C7.94908 16.7433 8.70064 17.3837 9.47988 18.065C9.76231 18.3122 10.1246 18.4481 10.5 18.4481C10.8753 18.4481 11.2378 18.3121 11.5201 18.0651C12.3011 17.3824 13.0538 16.7409 13.7198 16.1736L13.7199 16.1736L13.7442 16.1529C15.6735 14.509 17.3787 13.0562 18.5726 11.6158C19.9271 9.98194 20.5863 8.39438 20.5863 6.63984C20.5863 4.95675 20.0088 3.38753 18.9423 2.23086L18.9422 2.23085C17.8615 1.05895 16.3765 0.413676 14.7685 0.413676C13.5584 0.413676 12.4471 0.798181 11.476 1.54907C11.1244 1.8209 10.7985 2.13517 10.5 2.48811C10.2016 2.13515 9.87566 1.8209 9.52423 1.54911L9.5242 1.54909C8.55307 0.798186 7.44177 0.413676 6.23162 0.413676C4.6235 0.413676 3.13866 1.05896 2.05792 2.23085L2.05791 2.23086C0.991349 3.38751 0.413676 4.95672 0.413676 6.63984C0.413676 8.39441 1.07311 9.98195 2.42758 11.616L2.42759 11.616C3.62177 13.0565 5.3277 14.5099 7.25796 16.1545L7.27922 16.1726L7.28103 16.1742Z" fill="#262626" stroke="#262626" stroke-width="0.8"/>
</svg>
