<svg width="289" height="35" viewBox="0 0 289 35" fill="none" xmlns="http://www.w3.org/2000/svg">
<path d="M275.084 0C281.125 2.21627 284.438 4.62588 284.438 7.13963C284.438 18.102 221.777 26.9968 144.484 26.9968C67.1914 26.9968 4.53029 18.0722 4.53029 7.13963C4.53029 4.62588 7.84363 2.21627 13.884 0C4.98474 2.6625 0 5.63734 0 8.77581C0 20.11 64.6843 29.3023 144.484 29.3023C224.284 29.3023 288.968 20.11 288.968 8.77581C288.968 5.66709 283.983 2.69224 275.084 0Z" fill="#525252"/>
<path d="M148.139 29.3023C148.139 28.1754 147.805 27.0738 147.179 26.1369C146.553 25.1999 145.663 24.4696 144.622 24.0384C143.581 23.6071 142.435 23.4943 141.33 23.7141C140.225 23.934 139.21 24.4766 138.413 25.2735C137.616 26.0703 137.073 27.0855 136.854 28.1908C136.634 29.296 136.747 30.4416 137.178 31.4827C137.609 32.5238 138.339 33.4137 139.276 34.0398C140.213 34.6658 141.315 35 142.442 35C143.952 34.9974 145.4 34.3963 146.468 33.3283C147.536 32.2603 148.137 30.8126 148.139 29.3023Z" fill="#525252"/>
<path d="M138.372 29.2797L141.628 26.8605V31.7329L138.372 29.2797Z" fill="white"/>
<path d="M146.512 29.3136L143.256 31.7329V26.8605L146.512 29.3136Z" fill="white"/>
</svg>
