<svg width="27" height="12" viewBox="0 0 27 12" fill="none" xmlns="http://www.w3.org/2000/svg">
<path opacity="0.35" fill-rule="evenodd" clip-rule="evenodd" d="M2.54717 0H21.9057C23.3124 0 24.4528 1.14041 24.4528 2.54717V9.16981C24.4528 10.5766 23.3124 11.717 21.9057 11.717H2.54717C1.14041 11.717 0 10.5766 0 9.16981V2.54717C0 1.14041 1.14041 0 2.54717 0ZM2.54717 2.03774C2.26582 2.03774 2.03774 2.26582 2.03774 2.54717V9.16981C2.03774 9.45116 2.26582 9.67925 2.54717 9.67925H21.9057C22.187 9.67925 22.4151 9.45116 22.4151 9.16981V2.54717C22.4151 2.26582 22.187 2.03774 21.9057 2.03774H2.54717ZM1.01887 2.54717C1.01887 1.70311 1.70311 1.01887 2.54717 1.01887H21.9057C22.7497 1.01887 23.434 1.70311 23.434 2.54717V9.16981C23.434 10.0139 22.7497 10.6981 21.9057 10.6981H2.54717C1.70311 10.6981 1.01887 10.0139 1.01887 9.16981V2.54717Z" fill="#262626"/>
<path opacity="0.35" d="M25.9811 7.29958V4.4173C26.3 4.81127 26.4906 5.31276 26.4906 5.85844C26.4906 6.40412 26.3 6.90561 25.9811 7.29958Z" stroke="#262626"/>
<path fill-rule="evenodd" clip-rule="evenodd" d="M3.0566 2.03774H21.3962C21.9589 2.03774 22.4151 2.4939 22.4151 3.0566V8.66038C22.4151 9.22308 21.9589 9.67925 21.3962 9.67925H3.0566C2.4939 9.67925 2.03774 9.22308 2.03774 8.66038V3.0566C2.03774 2.4939 2.4939 2.03774 3.0566 2.03774Z" fill="#262626"/>
</svg>
