<svg width="17" height="15" viewBox="0 0 17 15" fill="none" xmlns="http://www.w3.org/2000/svg">
<path d="M7.7492 2.66619L8.49848 3.45051L9.24777 2.66619C9.9793 1.90047 11.0998 1.03626 12.2624 1.03626C13.4101 1.03626 14.3224 1.43212 14.9452 2.05388C15.5679 2.67551 15.9638 3.58524 15.9638 4.72911C15.9638 5.96142 15.4865 7.00241 14.6888 7.99662C13.8712 9.01564 12.7709 9.92231 11.5825 10.896L11.5572 10.9168C10.5408 11.7492 9.41359 12.6723 8.49899 13.7042C7.5934 12.6813 6.4769 11.7655 5.46956 10.9393L5.41722 10.8964L5.4168 10.896C4.22812 9.92202 3.12794 9.01515 2.31066 7.99617C1.51326 7.00198 1.03626 5.96115 1.03626 4.72911C1.03626 3.58524 1.43212 2.67554 2.05488 2.05392C2.67778 1.43218 3.59023 1.03626 4.73838 1.03626C5.8997 1.03626 7.01685 1.89961 7.7492 2.66619Z" stroke="#262626" stroke-width="2"/>
</svg>
