<svg width="20" height="20" viewBox="0 0 20 20" fill="none" xmlns="http://www.w3.org/2000/svg">
<path d="M8.00491 16.0098C6.42169 16.0098 4.87402 15.5403 3.55762 14.6607C2.24122 13.7812 1.21521 12.531 0.609341 11.0683C0.00346837 9.60555 -0.155055 7.99603 0.153816 6.44323C0.462687 4.89043 1.22508 3.46409 2.34459 2.34459C3.46409 1.22508 4.89043 0.462687 6.44323 0.153816C7.99603 -0.155055 9.60555 0.00346837 11.0683 0.609341C12.531 1.21521 13.7812 2.24122 14.6607 3.55762C15.5403 4.87402 16.0098 6.42169 16.0098 8.00491C16.0074 10.1272 15.1633 12.1619 13.6626 13.6626C12.1619 15.1633 10.1272 16.0074 8.00491 16.0098ZM8.00491 2.00123C6.81749 2.00123 5.65674 2.35334 4.66944 3.01303C3.68214 3.67272 2.91264 4.61037 2.45823 5.7074C2.00383 6.80443 1.88494 8.01157 2.11659 9.17617C2.34824 10.3408 2.92004 11.4105 3.75967 12.2502C4.5993 13.0898 5.66905 13.6616 6.83365 13.8932C7.99825 14.1249 9.20539 14.006 10.3024 13.5516C11.3994 13.0972 12.3371 12.3277 12.9968 11.3404C13.6565 10.3531 14.0086 9.19232 14.0086 8.00491C14.0067 6.4132 13.3736 4.88722 12.2481 3.76171C11.1226 2.63621 9.59661 2.00308 8.00491 2.00123Z" fill="#262626"/>
<path d="M12.3003 12.3006C12.4879 12.113 12.7424 12.0076 13.0077 12.0076C13.273 12.0076 13.5275 12.113 13.7151 12.3006L19.7188 18.3042C19.9011 18.493 20.0019 18.7457 19.9997 19.0081C19.9974 19.2704 19.8921 19.5214 19.7066 19.7069C19.5211 19.8924 19.2701 19.9977 19.0078 20C18.7454 20.0022 18.4927 19.9014 18.3039 19.7191L12.3003 13.7154C12.1127 13.5278 12.0073 13.2733 12.0073 13.008C12.0073 12.7427 12.1127 12.4882 12.3003 12.3006Z" fill="#262626"/>
</svg>
